<svg width="110" height="42" viewBox="0 0 110 42" fill="none" xmlns="http://www.w3.org/2000/svg">
<path d="M0.6875 30.834H2.08384L4.43558 39.8735H6.19938L8.55112 30.834H9.94746L7.22827 41.1229H3.40669L0.6875 30.834Z" fill="url(#paint0_linear_1_257)"/>
<path d="M11.4161 41.1229V30.834H18.6183V32.0834H12.739V35.317H17.516V36.5664H12.739V39.8735H18.6183V41.1229H11.4161Z" fill="url(#paint1_linear_1_257)"/>
<path d="M20.3873 41.1229V30.834H22.2981L27.3543 39.506H27.3837L27.369 39.359V30.834H28.6919V41.1229H26.7811L21.7249 32.4508H21.6955L21.7102 32.5978V41.1082L20.3873 41.1229Z" fill="url(#paint2_linear_1_257)"/>
<path d="M30.009 32.0834V30.834H38.387V32.0834H34.8594V41.1229H33.5366V32.0834H30.009Z" fill="url(#paint3_linear_1_257)"/>
<path d="M39.6341 37.2278V30.834H40.957V37.2278C40.957 38.1293 41.2068 38.8446 41.7066 39.3737C42.2063 39.9029 42.8628 40.1675 43.6762 40.1675C44.4895 40.1675 45.146 39.9029 45.6457 39.3737C46.1455 38.8446 46.3953 38.1293 46.3953 37.2278V30.834H47.7182V37.2278C47.7182 38.5016 47.3458 39.5207 46.6011 40.285C45.8662 41.0396 44.8912 41.4168 43.6762 41.4168C42.4611 41.4168 41.4812 41.0396 40.7365 40.285C40.0016 39.5207 39.6341 38.5016 39.6341 37.2278Z" fill="url(#paint4_linear_1_257)"/>
<path d="M49.9993 41.1229V30.834H54.4088C55.5553 30.834 56.4666 31.1378 57.1427 31.7453C57.8188 32.3528 58.1569 33.1269 58.1569 34.0676C58.1569 34.8418 57.9168 35.5032 57.4367 36.0519C56.9663 36.6007 56.3 36.9681 55.4377 37.1543L58.0834 41.1229H56.5401L54.0414 37.3013H51.3222V41.1229H49.9993ZM51.3222 36.0519H54.4088C55.2025 36.0519 55.8052 35.8755 56.2167 35.5228C56.6283 35.1602 56.834 34.6752 56.834 34.0676C56.834 33.4601 56.6283 32.98 56.2167 32.6272C55.8052 32.2646 55.2025 32.0834 54.4088 32.0834H51.3222V36.0519Z" fill="url(#paint5_linear_1_257)"/>
<path d="M60.0614 41.1229V30.834H67.2636V32.0834H61.3842V35.317H66.1612V36.5664H61.3842V39.8735H67.2636V41.1229H60.0614Z" fill="url(#paint6_linear_1_257)"/>
<path d="M68.4446 38.1832H69.7674C69.8752 38.5555 70.0516 38.8887 70.2966 39.1827C70.8453 39.8392 71.6488 40.1675 72.7071 40.1675C73.5498 40.1675 74.1867 40.0009 74.6179 39.6677C75.0588 39.3346 75.2793 38.9132 75.2793 38.4037C75.2793 37.9725 75.1029 37.6295 74.7502 37.3748C74.3974 37.12 73.8977 36.8995 73.251 36.7133C73.1334 36.6741 72.9423 36.6203 72.6777 36.5517C72.4229 36.4831 72.2221 36.4292 72.0751 36.39C71.9281 36.3508 71.7321 36.292 71.4871 36.2136C71.2422 36.1352 71.0462 36.0666 70.8992 36.0078C70.7522 35.9392 70.5759 35.8559 70.3701 35.758C70.1643 35.6502 69.9977 35.5473 69.8703 35.4493C69.7527 35.3513 69.6205 35.2337 69.4735 35.0965C69.3363 34.9495 69.2285 34.7977 69.1501 34.6409C69.0815 34.4841 69.0178 34.3077 68.959 34.1117C68.91 33.9158 68.8855 33.7051 68.8855 33.4797C68.8855 32.6762 69.2236 31.9854 69.8997 31.4072C70.5759 30.8291 71.4627 30.54 72.5601 30.54C74.0104 30.54 75.1078 31.0202 75.8526 31.9805C76.1661 32.4018 76.3915 32.8771 76.5287 33.4062H75.2058C75.1176 33.1318 74.9609 32.8624 74.7355 32.5978C74.1965 32.0589 73.4714 31.7894 72.5601 31.7894C71.8252 31.7894 71.2471 31.956 70.8257 32.2891C70.4142 32.6125 70.2084 33.0094 70.2084 33.4797C70.2084 33.7051 70.2721 33.9109 70.3995 34.097C70.5269 34.2832 70.6787 34.44 70.8551 34.5674C71.0315 34.685 71.2765 34.8075 71.59 34.9348C71.9134 35.0524 72.1976 35.1455 72.4425 35.2141C72.6875 35.2827 73.0109 35.366 73.4126 35.464C73.8634 35.5816 74.2602 35.7139 74.6032 35.8608C74.9462 36.0078 75.2793 36.194 75.6027 36.4194C75.926 36.6448 76.171 36.924 76.3376 37.2572C76.514 37.5903 76.6022 37.9725 76.6022 38.4037C76.6022 39.2464 76.2543 39.9617 75.5586 40.5496C74.8629 41.1278 73.9124 41.4168 72.7071 41.4168C71.1295 41.4168 69.9487 40.8779 69.1648 39.8C68.8218 39.3395 68.5818 38.8005 68.4446 38.1832Z" fill="url(#paint7_linear_1_257)"/>
<path d="M3.32019 19.6729C1.10673 17.4801 0 14.7495 0 11.481C0 8.21257 1.10673 5.48194 3.32019 3.28916C5.53366 1.09639 8.30566 0 11.6362 0C14.9667 0 17.7387 1.09639 19.9522 3.28916C22.1657 5.48194 23.2724 8.21257 23.2724 11.481C23.2724 14.7495 22.1657 17.4801 19.9522 19.6729C17.7387 21.8657 14.9667 22.9621 11.6362 22.9621C8.30566 22.9621 5.53366 21.8657 3.32019 19.6729ZM5.9267 5.64743C4.45795 7.13686 3.72358 9.0814 3.72358 11.481C3.72358 13.8807 4.45795 15.8252 5.9267 17.3147C7.39545 18.8041 9.29861 19.5488 11.6362 19.5488C13.9531 19.5488 15.8459 18.8041 17.3147 17.3147C18.8041 15.8252 19.5488 13.8807 19.5488 11.481C19.5488 9.0814 18.8041 7.13686 17.3147 5.64743C15.8459 4.158 13.9531 3.41328 11.6362 3.41328C9.29861 3.41328 7.39545 4.158 5.9267 5.64743Z" fill="#03CF54"/>
<path d="M29.1084 19.704C26.8743 17.5319 25.7572 14.7909 25.7572 11.481C25.7572 8.17119 26.8743 5.43022 29.1084 3.25813C31.3426 1.08604 34.1042 0 37.3934 0C41.1583 0 44.0958 1.32394 46.2059 3.97182C47.1368 5.10958 47.8194 6.42318 48.2538 7.91261H44.6854C44.313 7.08515 43.7959 6.34043 43.1339 5.67846C41.6238 4.16834 39.7103 3.41328 37.3934 3.41328C35.0558 3.41328 33.1526 4.158 31.6839 5.64743C30.2152 7.13686 29.4808 9.0814 29.4808 11.481C29.4808 13.8807 30.2152 15.8252 31.6839 17.3147C33.1526 18.8041 35.0558 19.5488 37.3934 19.5488C39.8344 19.5488 41.8307 18.6696 43.3821 16.9113C44.0648 16.1045 44.5509 15.2253 44.8406 14.2737H40.9618V10.8604H51.0465V14.2737H48.409C47.9332 15.908 47.2195 17.356 46.2679 18.6179C44.0338 21.514 41.0756 22.9621 37.3934 22.9621C34.1042 22.9621 31.3426 21.876 29.1084 19.704Z" fill="#03CF54"/>
<path d="M53.5362 22.3415V0.620596H63.0003C65.5654 0.620596 67.603 1.28257 69.1132 2.60651C70.6233 3.93045 71.3783 5.59572 71.3783 7.60231C71.3783 9.19518 70.8819 10.6019 69.8889 11.8224C68.9166 13.0222 67.5513 13.8393 65.793 14.2737L71.2232 22.3415H67.0342L61.9142 14.584H57.1046V22.3415H53.5362ZM57.1046 11.1707H63.0003C66.1033 11.1707 67.6548 9.98127 67.6548 7.60231C67.6548 5.22336 66.1033 4.03388 63.0003 4.03388H57.1046V11.1707Z" fill="#03CF54"/>
<path d="M73.0983 4.03388V0.620596H90.9405V4.03388H83.8036V22.3415H80.2352V4.03388H73.0983Z" fill="#03CF54"/>
<path d="M92.1732 22.3415V18.9282L104.461 4.34418V4.03388H92.4835V0.620596H109.084V4.03388L96.7966 18.6179V18.9282H109.395V22.3415H92.1732Z" fill="#03CF54"/>
<defs>
<linearGradient id="paint0_linear_1_257" x1="74.3694" y1="30.54" x2="47.4647" y2="71.8686" gradientUnits="userSpaceOnUse">
<stop stop-color="#03CF54"/>
<stop offset="1" stop-color="#04FF96"/>
</linearGradient>
<linearGradient id="paint1_linear_1_257" x1="74.3694" y1="30.54" x2="47.4647" y2="71.8686" gradientUnits="userSpaceOnUse">
<stop stop-color="#03CF54"/>
<stop offset="1" stop-color="#04FF96"/>
</linearGradient>
<linearGradient id="paint2_linear_1_257" x1="74.3694" y1="30.54" x2="47.4647" y2="71.8686" gradientUnits="userSpaceOnUse">
<stop stop-color="#03CF54"/>
<stop offset="1" stop-color="#04FF96"/>
</linearGradient>
<linearGradient id="paint3_linear_1_257" x1="74.3694" y1="30.54" x2="47.4647" y2="71.8686" gradientUnits="userSpaceOnUse">
<stop stop-color="#03CF54"/>
<stop offset="1" stop-color="#04FF96"/>
</linearGradient>
<linearGradient id="paint4_linear_1_257" x1="74.3694" y1="30.54" x2="47.4647" y2="71.8686" gradientUnits="userSpaceOnUse">
<stop stop-color="#03CF54"/>
<stop offset="1" stop-color="#04FF96"/>
</linearGradient>
<linearGradient id="paint5_linear_1_257" x1="74.3694" y1="30.54" x2="47.4647" y2="71.8686" gradientUnits="userSpaceOnUse">
<stop stop-color="#03CF54"/>
<stop offset="1" stop-color="#04FF96"/>
</linearGradient>
<linearGradient id="paint6_linear_1_257" x1="74.3694" y1="30.54" x2="47.4647" y2="71.8686" gradientUnits="userSpaceOnUse">
<stop stop-color="#03CF54"/>
<stop offset="1" stop-color="#04FF96"/>
</linearGradient>
<linearGradient id="paint7_linear_1_257" x1="74.3694" y1="30.54" x2="47.4647" y2="71.8686" gradientUnits="userSpaceOnUse">
<stop stop-color="#03CF54"/>
<stop offset="1" stop-color="#04FF96"/>
</linearGradient>
</defs>
</svg>
