<svg xmlns="http://www.w3.org/2000/svg"><style>:root svg:not(:target){display:none}</style><svg viewBox="0 0 16 14" fill="none" id="burger-button"><path d="M15 12a1 1 0 1 1 0 2h-14a1 1 0 1 1 0-2h14Zm0-6a1 1 0 1 1 0 2h-14a1 1 0 0 1 0-2h14Zm0-6a1 1 0 1 1 0 2h-14a1 1 0 0 1 0-2h14Z" fill="#fff"></path></svg><svg viewBox="0 0 22 22" fill="none" id="close-button"><path d="m10.6 8.25 8.26-8.25 2.35 2.36-8.25 8.25 8.25 8.25-2.35 2.35-8.25-8.25-8.25 8.25-2.36-2.35 8.25-8.25-8.25-8.25 2.36-2.36 8.25 8.25Z" fill="#fff"></path></svg><svg viewBox="0 0 48 48" fill="none" id="telegram-blue"><path d="M24 48a24 24 0 1 0 0-48 24 24 0 0 0 0 48Z" fill="url(#telegram-blue_0)"></path><path d="M8.94 25.17c2.8-1.54 5.94-2.83 8.86-4.13a461.17 461.17 0 0 1 15.2-6.15c.99-.33 2.77-.65 2.95.82-.1 2.08-.5 4.15-.76 6.22-.69 4.56-1.48 9.1-2.25 13.64-.27 1.51-2.17 2.3-3.38 1.33-2.91-1.97-5.85-3.92-8.72-5.93-.94-.96-.07-2.34.77-3.02 2.4-2.36 4.94-4.37 7.22-6.86.61-1.48-1.2-.23-1.8.15-3.28 2.26-6.49 4.67-9.95 6.65-1.77.98-3.83.15-5.6-.4-1.59-.65-3.9-1.31-2.54-2.32Z" fill="#fff"></path><defs><linearGradient id="telegram-blue_0" x1="18.003" y1="2.002" x2="6.003" y2="30" gradientUnits="userSpaceOnUse"><stop stop-color="#37AEE2"></stop><stop offset="1" stop-color="#1E96C8"></stop></linearGradient></defs></svg><svg viewBox="0 0 28 23" fill="none" id="telegram-white"><path d="M.41 10.56c2.81-1.54 5.94-2.83 8.87-4.13a461.2 461.2 0 0 1 15.2-6.15c.98-.33 2.77-.65 2.94.82-.1 2.08-.49 4.15-.76 6.22-.68 4.56-1.48 9.1-2.25 13.64-.27 1.51-2.16 2.3-3.37 1.33-2.92-1.97-5.85-3.92-8.73-5.93-.94-.96-.07-2.33.78-3.02 2.4-2.36 4.94-4.37 7.21-6.86.62-1.48-1.2-.23-1.8.15-3.28 2.26-6.48 4.67-9.95 6.66-1.76.97-3.83.14-5.6-.4-1.58-.66-3.9-1.32-2.54-2.32Z" fill="#fff"></path></svg><svg viewBox="0 0 48 48" fill="none" id="twitter"><path d="M0 24a24 24 0 1 1 48 0 24 24 0 0 1-48 0Z" fill="#55ACEE"></path><path d="m23.28 19.5.05.84-.84-.1a13.65 13.65 0 0 1-7.99-3.94l-1.1-1.1-.3.82a4.9 4.9 0 0 0 1.05 5.01c.67.71.52.82-.64.4-.4-.14-.75-.24-.79-.2-.12.12.29 1.67.6 2.28a5.42 5.42 0 0 0 2.3 2.17l.83.39-.97.01c-.95 0-.98.02-.88.38.34 1.1 1.66 2.27 3.14 2.78l1.04.35-.9.54a9.45 9.45 0 0 1-4.5 1.26c-.76.01-1.38.08-1.38.13 0 .17 2.05 1.12 3.24 1.5 3.58 1.1 7.82.62 11.01-1.26 2.27-1.34 4.54-4 5.6-6.58a17.48 17.48 0 0 0 1.13-5.08c0-.78.05-.88 1-1.81.55-.55 1.07-1.14 1.17-1.3.17-.33.15-.33-.7-.04-1.43.5-1.63.44-.93-.32a4.93 4.93 0 0 0 1.14-1.82c0-.05-.25.04-.53.19-.3.17-.98.42-1.48.58l-.9.28-.83-.56c-.45-.3-1.1-.64-1.43-.74a5.73 5.73 0 0 0-2.94.07 4.85 4.85 0 0 0-3.27 4.88Z" fill="#fff"></path></svg></svg>