<svg viewBox="0 0 110 42" fill="none" xmlns="http://www.w3.org/2000/svg"><path d="M.69 30.83h1.4l2.35 9.04h1.76l2.35-9.04h1.4l-2.72 10.3h-3.82l-2.72-10.3Z" fill="url(#a)"/><path d="M11.42 41.12v-10.29h7.2v1.25h-5.88v3.24h4.78v1.25h-4.78v3.3h5.88v1.25h-7.2Z" fill="url(#b)"/><path d="M20.39 41.12v-10.29h1.9l5.06 8.68h.03l-.01-.15v-8.53h1.32v10.3h-1.9l-5.07-8.68h-.02l.01.15v8.5l-1.32.02Z" fill="url(#c)"/><path d="M30 32.08v-1.25h8.39v1.25h-3.53v9.04h-1.32v-9.04h-3.53Z" fill="url(#d)"/><path d="M39.63 37.23v-6.4h1.33v6.4a3 3 0 0 0 .75 2.14c.5.53 1.15.8 1.97.8.8 0 1.47-.27 1.97-.8a3 3 0 0 0 .75-2.14v-6.4h1.32v6.4a4.2 4.2 0 0 1-1.12 3.05 3.9 3.9 0 0 1-2.92 1.14c-1.22 0-2.2-.38-2.94-1.14a4.23 4.23 0 0 1-1.1-3.05Z" fill="url(#e)"/><path d="M50 41.12v-10.29h4.4c1.16 0 2.07.3 2.74.92.68.6 1.02 1.38 1.02 2.32a2.9 2.9 0 0 1-.72 1.98c-.47.55-1.14.92-2 1.1l2.64 3.97h-1.54l-2.5-3.82h-2.72v3.82h-1.32Zm1.32-5.07h3.09c.8 0 1.4-.17 1.8-.53.42-.36.62-.84.62-1.45s-.2-1.09-.61-1.44c-.41-.37-1.02-.55-1.81-.55h-3.09v3.97Z" fill="url(#f)"/><path d="M60.06 41.12v-10.29h7.2v1.25h-5.88v3.24h4.78v1.25h-4.78v3.3h5.88v1.25h-7.2Z" fill="url(#g)"/><path d="M68.44 38.18h1.33c.1.38.28.7.53 1 .55.66 1.35.99 2.4.99.85 0 1.49-.17 1.92-.5.44-.34.66-.76.66-1.27 0-.43-.18-.77-.53-1.03a4.9 4.9 0 0 0-1.5-.66l-.57-.16a278.76 278.76 0 0 0-1.2-.34 9.21 9.21 0 0 1-1.11-.45 3.48 3.48 0 0 1-.9-.66c-.13-.15-.24-.3-.32-.46a2.6 2.6 0 0 1-.26-1.16c0-.8.33-1.5 1.01-2.07a3.95 3.95 0 0 1 2.66-.87c1.45 0 2.55.48 3.3 1.44.3.42.53.9.67 1.43h-1.32a2.38 2.38 0 0 0-.47-.81 2.94 2.94 0 0 0-2.18-.81c-.73 0-1.31.17-1.73.5-.42.32-.62.72-.62 1.19 0 .23.06.43.19.62.13.18.28.34.46.47.17.12.42.24.73.36a12.06 12.06 0 0 0 1.82.53 5.87 5.87 0 0 1 2.2.96 2.41 2.41 0 0 1 1 1.98c0 .85-.36 1.56-1.05 2.15-.7.58-1.65.87-2.85.87-1.58 0-2.76-.54-3.55-1.62a4.2 4.2 0 0 1-.72-1.62Z" fill="url(#h)"/><path d="M3.32 19.67a11.07 11.07 0 0 1-3.32-8.19c0-3.27 1.1-6 3.32-8.2a11.34 11.34 0 0 1 8.32-3.28c3.33 0 6.1 1.1 8.31 3.29a11.06 11.06 0 0 1 3.32 8.2c0 3.26-1.1 5.99-3.32 8.18a11.34 11.34 0 0 1-8.31 3.3c-3.33 0-6.1-1.1-8.32-3.3Zm2.6-14.02a7.95 7.95 0 0 0-2.2 5.83c0 2.4.74 4.35 2.2 5.83a7.67 7.67 0 0 0 5.72 2.24c2.31 0 4.2-.75 5.67-2.24a7.89 7.89 0 0 0 2.24-5.83 7.63 7.63 0 0 0-7.91-8.07c-2.34 0-4.24.75-5.71 2.24Zm23.18 14.05a10.99 10.99 0 0 1-3.34-8.22c0-3.3 1.11-6.05 3.35-8.22 2.23-2.17 5-3.26 8.28-3.26 3.77 0 6.7 1.32 8.82 3.97a11.02 11.02 0 0 1 2.04 3.94h-3.56a7.78 7.78 0 0 0-7.3-4.5c-2.33 0-4.24.75-5.7 2.24a7.95 7.95 0 0 0-2.2 5.83c0 2.4.73 4.35 2.2 5.83a7.67 7.67 0 0 0 5.7 2.24 7.62 7.62 0 0 0 7.45-5.28h-3.88v-3.41h10.09v3.41h-2.64a13.33 13.33 0 0 1-2.14 4.35 10.66 10.66 0 0 1-8.88 4.34c-3.29 0-6.05-1.08-8.28-3.26Zm24.44 2.64v-21.72h9.46c2.57 0 4.6.66 6.11 1.99a6.36 6.36 0 0 1 2.27 5c0 1.59-.5 3-1.5 4.21a7.35 7.35 0 0 1-4.09 2.45l5.43 8.07h-4.19l-5.12-7.76h-4.8v7.76h-3.57Zm3.56-11.17h5.9c3.1 0 4.65-1.19 4.65-3.57s-1.55-3.57-4.65-3.57h-5.9v7.14Zm16-7.14v-3.4h17.84v3.4h-7.14v18.31h-3.56v-18.3h-7.14Zm19.07 18.31v-3.41l12.3-14.59v-.3h-11.99v-3.42h16.6v3.41l-12.28 14.59v.3h12.6v3.42h-17.23Z" fill="#fff"/><defs><linearGradient id="a" x1="74.369" y1="30.54" x2="47.465" y2="71.869" gradientUnits="userSpaceOnUse"><stop stop-color="#03CF54"/><stop offset="1" stop-color="#04FF96"/></linearGradient><linearGradient id="b" x1="74.369" y1="30.54" x2="47.465" y2="71.869" gradientUnits="userSpaceOnUse"><stop stop-color="#03CF54"/><stop offset="1" stop-color="#04FF96"/></linearGradient><linearGradient id="c" x1="74.369" y1="30.54" x2="47.465" y2="71.869" gradientUnits="userSpaceOnUse"><stop stop-color="#03CF54"/><stop offset="1" stop-color="#04FF96"/></linearGradient><linearGradient id="d" x1="74.369" y1="30.54" x2="47.465" y2="71.869" gradientUnits="userSpaceOnUse"><stop stop-color="#03CF54"/><stop offset="1" stop-color="#04FF96"/></linearGradient><linearGradient id="e" x1="74.369" y1="30.54" x2="47.465" y2="71.869" gradientUnits="userSpaceOnUse"><stop stop-color="#03CF54"/><stop offset="1" stop-color="#04FF96"/></linearGradient><linearGradient id="f" x1="74.369" y1="30.54" x2="47.465" y2="71.869" gradientUnits="userSpaceOnUse"><stop stop-color="#03CF54"/><stop offset="1" stop-color="#04FF96"/></linearGradient><linearGradient id="g" x1="74.369" y1="30.54" x2="47.465" y2="71.869" gradientUnits="userSpaceOnUse"><stop stop-color="#03CF54"/><stop offset="1" stop-color="#04FF96"/></linearGradient><linearGradient id="h" x1="74.369" y1="30.54" x2="47.465" y2="71.869" gradientUnits="userSpaceOnUse"><stop stop-color="#03CF54"/><stop offset="1" stop-color="#04FF96"/></linearGradient></defs></svg>