<svg viewBox="0 0 24 24" fill="none" xmlns="http://www.w3.org/2000/svg"><foreignObject x="-13" y="-12.84" width="50" height="47.84"><div xmlns="http://www.w3.org/1999/xhtml" style="backdrop-filter:blur(7px);clip-path:url(#a);height:100%;width:100%"/></foreignObject><g filter="url(#b)" data-figma-bg-blur-radius="14"><path d="M2 9h3v12h-3a1 1 0 0 1-1-1v-10a1 1 0 0 1 1-1Zm5.3-1.3 6.4-6.4a.5.5 0 0 1 .65-.04l.85.64a1.5 1.5 0 0 1 .55 1.57l-1.15 4.53h6.4a2 2 0 0 1 2 2v2.1a2 2 0 0 1-.15.77l-3.1 7.51a1 1 0 0 1-.92.62h-10.83a1 1 0 0 1-1-1v-11.59a1 1 0 0 1 .3-.7Z" fill="url(#c)"/></g><defs><linearGradient id="c" x1="9.027" y1="-27.36" x2="-46.062" y2="17.975" gradientUnits="userSpaceOnUse"><stop stop-color="#fff" stop-opacity=".88"/><stop offset="1" stop-color="#fff" stop-opacity="0"/></linearGradient><clipPath id="a" transform="translate(13 12.84)"><path d="M2 9h3v12h-3a1 1 0 0 1-1-1v-10a1 1 0 0 1 1-1Zm5.3-1.3 6.4-6.4a.5.5 0 0 1 .65-.04l.85.64a1.5 1.5 0 0 1 .55 1.57l-1.15 4.53h6.4a2 2 0 0 1 2 2v2.1a2 2 0 0 1-.15.77l-3.1 7.51a1 1 0 0 1-.92.62h-10.83a1 1 0 0 1-1-1v-11.59a1 1 0 0 1 .3-.7Z"/></clipPath><filter id="b" x="-13" y="-12.84" width="50" height="47.84" filterUnits="userSpaceOnUse" color-interpolation-filters="sRGB"><feFlood flood-opacity="0" result="BackgroundImageFix"/><feBlend in="SourceGraphic" in2="BackgroundImageFix" result="shape"/><feColorMatrix in="SourceAlpha" values="0 0 0 0 0 0 0 0 0 0 0 0 0 0 0 0 0 0 127 0" result="hardAlpha"/><feOffset dy=".2"/><feComposite in2="hardAlpha" operator="arithmetic" k2="-1" k3="1"/><feColorMatrix values="0 0 0 0 1 0 0 0 0 1 0 0 0 0 1 0 0 0 0.25 0"/><feBlend in2="shape" result="effect1_innerShadow_1_198"/><feColorMatrix in="SourceAlpha" values="0 0 0 0 0 0 0 0 0 0 0 0 0 0 0 0 0 0 127 0" result="hardAlpha"/><feOffset dy="-.2"/><feComposite in2="hardAlpha" operator="arithmetic" k2="-1" k3="1"/><feColorMatrix values="0 0 0 0 0 0 0 0 0 0 0 0 0 0 0 0 0 0 0.25 0"/><feBlend in2="effect1_innerShadow_1_198" result="effect2_innerShadow_1_198"/></filter></defs></svg>