<svg viewBox="0 0 50 48" fill="none" xmlns="http://www.w3.org/2000/svg"><ellipse cx="23.5" cy="42.5" rx="14.5" ry="5.5" fill="url(#a)"/><foreignObject x="-24" y="-24" width="96" height="96"><div xmlns="http://www.w3.org/1999/xhtml" style="backdrop-filter:blur(12px);clip-path:url(#b);height:100%;width:100%"/></foreignObject><g data-figma-bg-blur-radius="24"><rect x=".25" y=".25" width="47.5" height="47.5" rx="15.75" fill="#B2E7FE" fill-opacity=".08"/><rect x=".25" y=".25" width="47.5" height="47.5" rx="15.75" stroke="url(#c)" stroke-width=".5"/><rect x=".25" y=".25" width="47.5" height="47.5" rx="15.75" stroke="url(#d)" stroke-width=".5"/></g><foreignObject x="-1" y="-.84" width="51" height="48.84"><div xmlns="http://www.w3.org/1999/xhtml" style="backdrop-filter:blur(7px);clip-path:url(#e);height:100%;width:100%"/></foreignObject><g filter="url(#f)" data-figma-bg-blur-radius="14"><path d="M14 21h3v12h-3a1 1 0 0 1-1-1v-10a1 1 0 0 1 1-1Zm5.3-1.3 6.4-6.4a.5.5 0 0 1 .65-.04l.85.64a1.5 1.5 0 0 1 .55 1.57l-1.15 4.53h6.4a2 2 0 0 1 2 2v2.1a2 2 0 0 1-.15.77l-3.1 7.51a1 1 0 0 1-.92.62h-10.83a1 1 0 0 1-1-1v-11.59a1 1 0 0 1 .3-.7Z" fill="url(#g)"/></g><defs><linearGradient id="a" x1="37.147" y1="37" x2="11.315" y2="51.989" gradientUnits="userSpaceOnUse"><stop stop-color="#03CF54"/><stop offset="1" stop-color="#04FF96"/></linearGradient><linearGradient id="c" x1="8.471" y1="43.412" x2="44.415" y2="5.241" gradientUnits="userSpaceOnUse"><stop stop-color="#3AC1FD" stop-opacity=".16"/><stop offset="1" stop-color="#fff" stop-opacity="0"/></linearGradient><linearGradient id="d" x1="8.471" y1="43.412" x2="44.415" y2="5.241" gradientUnits="userSpaceOnUse"><stop stop-color="#fff" stop-opacity="0"/><stop offset="1" stop-color="#fff" stop-opacity=".16"/></linearGradient><linearGradient id="g" x1="21.027" y1="-15.36" x2="-34.062" y2="29.975" gradientUnits="userSpaceOnUse"><stop stop-color="#fff" stop-opacity=".88"/><stop offset="1" stop-color="#fff" stop-opacity="0"/></linearGradient><clipPath id="b" transform="translate(24 24)"><rect x=".25" y=".25" width="47.5" height="47.5" rx="15.75"/></clipPath><clipPath id="e" transform="translate(1 .84)"><path d="M14 21h3v12h-3a1 1 0 0 1-1-1v-10a1 1 0 0 1 1-1Zm5.3-1.3 6.4-6.4a.5.5 0 0 1 .65-.04l.85.64a1.5 1.5 0 0 1 .55 1.57l-1.15 4.53h6.4a2 2 0 0 1 2 2v2.1a2 2 0 0 1-.15.77l-3.1 7.51a1 1 0 0 1-.92.62h-10.83a1 1 0 0 1-1-1v-11.59a1 1 0 0 1 .3-.7Z"/></clipPath><filter id="f" x="-1" y="-.84" width="51" height="48.84" filterUnits="userSpaceOnUse" color-interpolation-filters="sRGB"><feFlood flood-opacity="0" result="BackgroundImageFix"/><feColorMatrix in="SourceAlpha" values="0 0 0 0 0 0 0 0 0 0 0 0 0 0 0 0 0 0 127 0" result="hardAlpha"/><feOffset dx="5" dy="5"/><feGaussianBlur stdDeviation="5"/><feColorMatrix values="0 0 0 0 0.075 0 0 0 0 0.256347 0 0 0 0 0.333333 0 0 0 0.4 0"/><feBlend in2="BackgroundImageFix" result="effect1_dropShadow_1_459"/><feBlend in="SourceGraphic" in2="effect1_dropShadow_1_459" result="shape"/><feColorMatrix in="SourceAlpha" values="0 0 0 0 0 0 0 0 0 0 0 0 0 0 0 0 0 0 127 0" result="hardAlpha"/><feOffset dy=".2"/><feComposite in2="hardAlpha" operator="arithmetic" k2="-1" k3="1"/><feColorMatrix values="0 0 0 0 1 0 0 0 0 1 0 0 0 0 1 0 0 0 0.25 0"/><feBlend in2="shape" result="effect2_innerShadow_1_459"/><feColorMatrix in="SourceAlpha" values="0 0 0 0 0 0 0 0 0 0 0 0 0 0 0 0 0 0 127 0" result="hardAlpha"/><feOffset dy="-.2"/><feComposite in2="hardAlpha" operator="arithmetic" k2="-1" k3="1"/><feColorMatrix values="0 0 0 0 0 0 0 0 0 0 0 0 0 0 0 0 0 0 0.25 0"/><feBlend in2="effect2_innerShadow_1_459" result="effect3_innerShadow_1_459"/></filter></defs></svg>