<svg viewBox="0 0 50 52" fill="none" xmlns="http://www.w3.org/2000/svg"><ellipse cx="23.5" cy="42.5" rx="14.5" ry="5.5" fill="url(#a)"/><foreignObject x="-24" y="-24" width="96" height="96"><div xmlns="http://www.w3.org/1999/xhtml" style="backdrop-filter:blur(12px);clip-path:url(#b);height:100%;width:100%"/></foreignObject><g data-figma-bg-blur-radius="24"><rect x=".25" y=".25" width="47.5" height="47.5" rx="15.75" fill="#B2E7FE" fill-opacity=".08"/><rect x=".25" y=".25" width="47.5" height="47.5" rx="15.75" stroke="url(#c)" stroke-width=".5"/><rect x=".25" y=".25" width="47.5" height="47.5" rx="15.75" stroke="url(#d)" stroke-width=".5"/></g><foreignObject x="-.45" y="-2.706" width="49.9" height="54.412"><div xmlns="http://www.w3.org/1999/xhtml" style="backdrop-filter:blur(7px);clip-path:url(#e);height:100%;width:100%"/></foreignObject><g filter="url(#f)" data-figma-bg-blur-radius="14"><path d="M32.47 19.95c0 4.77-3.8 8.65-8.47 8.65a8.56 8.56 0 0 1-8.47-8.65c0-4.78 3.8-8.66 8.47-8.66a8.56 8.56 0 0 1 8.47 8.66Z" fill="url(#g)"/><path d="M34.35 34.05c.08.19.12.28.09.55-.02.16-.18.48-.3.6-.2.18-.35.22-.67.3-1.75.45-5.33 1.2-9.47 1.2a39.3 39.3 0 0 1-9.46-1.2c-.33-.08-.49-.12-.68-.3a1.35 1.35 0 0 1-.3-.6.8.8 0 0 1 .09-.55c1.02-2.44 5.27-4.27 10.35-4.27s9.33 1.83 10.35 4.27Z" fill="url(#h)"/></g><defs><linearGradient id="a" x1="37.147" y1="37" x2="11.315" y2="51.989" gradientUnits="userSpaceOnUse"><stop stop-color="#03CF54"/><stop offset="1" stop-color="#04FF96"/></linearGradient><linearGradient id="c" x1="8.471" y1="43.412" x2="44.415" y2="5.241" gradientUnits="userSpaceOnUse"><stop stop-color="#3AC1FD" stop-opacity=".16"/><stop offset="1" stop-color="#fff" stop-opacity="0"/></linearGradient><linearGradient id="d" x1="8.471" y1="43.412" x2="44.415" y2="5.241" gradientUnits="userSpaceOnUse"><stop stop-color="#fff" stop-opacity="0"/><stop offset="1" stop-color="#fff" stop-opacity=".16"/></linearGradient><linearGradient id="g" x1="21.139" y1="-25.235" x2="-43.193" y2="14.55" gradientUnits="userSpaceOnUse"><stop stop-color="#fff" stop-opacity=".88"/><stop offset="1" stop-color="#fff" stop-opacity="0"/></linearGradient><linearGradient id="h" x1="21.139" y1="-25.235" x2="-43.193" y2="14.55" gradientUnits="userSpaceOnUse"><stop stop-color="#fff" stop-opacity=".88"/><stop offset="1" stop-color="#fff" stop-opacity="0"/></linearGradient><clipPath id="b" transform="translate(24 24)"><rect x=".25" y=".25" width="47.5" height="47.5" rx="15.75"/></clipPath><clipPath id="e" transform="translate(.45 2.706)"><path d="M32.47 19.95c0 4.77-3.8 8.65-8.47 8.65a8.56 8.56 0 0 1-8.47-8.65c0-4.78 3.8-8.66 8.47-8.66a8.56 8.56 0 0 1 8.47 8.66Zm1.88 14.1c.08.19.12.28.09.55-.02.16-.18.48-.3.6-.2.18-.35.22-.67.3-1.75.45-5.33 1.2-9.47 1.2a39.3 39.3 0 0 1-9.46-1.2c-.33-.08-.49-.12-.68-.3a1.35 1.35 0 0 1-.3-.6.8.8 0 0 1 .09-.55c1.02-2.44 5.27-4.27 10.35-4.27s9.33 1.83 10.35 4.27Z"/></clipPath><filter id="f" x="-.45" y="-2.706" width="49.9" height="54.412" filterUnits="userSpaceOnUse" color-interpolation-filters="sRGB"><feFlood flood-opacity="0" result="BackgroundImageFix"/><feColorMatrix in="SourceAlpha" values="0 0 0 0 0 0 0 0 0 0 0 0 0 0 0 0 0 0 127 0" result="hardAlpha"/><feOffset dx="5" dy="5"/><feGaussianBlur stdDeviation="5"/><feColorMatrix values="0 0 0 0 0.075 0 0 0 0 0.256347 0 0 0 0 0.333333 0 0 0 0.4 0"/><feBlend in2="BackgroundImageFix" result="effect1_dropShadow_1_441"/><feBlend in="SourceGraphic" in2="effect1_dropShadow_1_441" result="shape"/><feColorMatrix in="SourceAlpha" values="0 0 0 0 0 0 0 0 0 0 0 0 0 0 0 0 0 0 127 0" result="hardAlpha"/><feOffset dy=".2"/><feComposite in2="hardAlpha" operator="arithmetic" k2="-1" k3="1"/><feColorMatrix values="0 0 0 0 1 0 0 0 0 1 0 0 0 0 1 0 0 0 0.25 0"/><feBlend in2="shape" result="effect2_innerShadow_1_441"/><feColorMatrix in="SourceAlpha" values="0 0 0 0 0 0 0 0 0 0 0 0 0 0 0 0 0 0 127 0" result="hardAlpha"/><feOffset dy="-.2"/><feComposite in2="hardAlpha" operator="arithmetic" k2="-1" k3="1"/><feColorMatrix values="0 0 0 0 0 0 0 0 0 0 0 0 0 0 0 0 0 0 0.25 0"/><feBlend in2="effect2_innerShadow_1_441" result="effect3_innerShadow_1_441"/></filter></defs></svg>