<svg viewBox="0 0 21 26" fill="none" xmlns="http://www.w3.org/2000/svg"><foreignObject x="-14" y="-14" width="48.9" height="53.412"><div xmlns="http://www.w3.org/1999/xhtml" style="backdrop-filter:blur(7px);clip-path:url(#a);height:100%;width:100%"/></foreignObject><g filter="url(#b)" data-figma-bg-blur-radius="14"><path d="M18.92 8.65c0 4.78-3.8 8.65-8.47 8.65a8.56 8.56 0 0 1-8.47-8.65c0-4.78 3.8-8.65 8.47-8.65a8.56 8.56 0 0 1 8.47 8.65Z" fill="url(#c)"/><path d="M20.8 22.76c.08.19.12.28.09.54-.02.17-.18.49-.3.6-.2.19-.35.23-.68.31-1.74.44-5.32 1.2-9.46 1.2-4.14 0-7.72-.76-9.46-1.2-.33-.08-.49-.12-.68-.3a1.35 1.35 0 0 1-.3-.6.85.85 0 0 1 .09-.55c1.02-2.44 5.27-4.27 10.35-4.27s9.33 1.83 10.35 4.27Z" fill="url(#d)"/></g><defs><linearGradient id="c" x1="7.626" y1="-36.529" x2="-56.326" y2="2.505" gradientUnits="userSpaceOnUse"><stop stop-color="#fff" stop-opacity=".88"/><stop offset="1" stop-color="#fff" stop-opacity="0"/></linearGradient><linearGradient id="d" x1="7.626" y1="-36.529" x2="-56.326" y2="2.505" gradientUnits="userSpaceOnUse"><stop stop-color="#fff" stop-opacity=".88"/><stop offset="1" stop-color="#fff" stop-opacity="0"/></linearGradient><clipPath id="a" transform="translate(14 14)"><path d="M18.92 8.65c0 4.78-3.8 8.65-8.47 8.65a8.56 8.56 0 0 1-8.47-8.65c0-4.78 3.8-8.65 8.47-8.65a8.56 8.56 0 0 1 8.47 8.65Zm1.88 14.11c.08.19.12.28.09.54-.02.17-.18.49-.3.6-.2.19-.35.23-.68.31-1.74.44-5.32 1.2-9.46 1.2-4.14 0-7.72-.76-9.46-1.2-.33-.08-.49-.12-.68-.3a1.35 1.35 0 0 1-.3-.6.85.85 0 0 1 .09-.55c1.02-2.44 5.27-4.27 10.35-4.27s9.33 1.83 10.35 4.27Z"/></clipPath><filter id="b" x="-14" y="-14" width="48.9" height="53.412" filterUnits="userSpaceOnUse" color-interpolation-filters="sRGB"><feFlood flood-opacity="0" result="BackgroundImageFix"/><feBlend in="SourceGraphic" in2="BackgroundImageFix" result="shape"/><feColorMatrix in="SourceAlpha" values="0 0 0 0 0 0 0 0 0 0 0 0 0 0 0 0 0 0 127 0" result="hardAlpha"/><feOffset dy=".2"/><feComposite in2="hardAlpha" operator="arithmetic" k2="-1" k3="1"/><feColorMatrix values="0 0 0 0 1 0 0 0 0 1 0 0 0 0 1 0 0 0 0.25 0"/><feBlend in2="shape" result="effect1_innerShadow_1_208"/><feColorMatrix in="SourceAlpha" values="0 0 0 0 0 0 0 0 0 0 0 0 0 0 0 0 0 0 127 0" result="hardAlpha"/><feOffset dy="-.2"/><feComposite in2="hardAlpha" operator="arithmetic" k2="-1" k3="1"/><feColorMatrix values="0 0 0 0 0 0 0 0 0 0 0 0 0 0 0 0 0 0 0.25 0"/><feBlend in2="effect1_innerShadow_1_208" result="effect2_innerShadow_1_208"/></filter></defs></svg>