<svg viewBox="0 0 48 48" fill="none" xmlns="http://www.w3.org/2000/svg"><path d="M24 48a24 24 0 1 0 0-48 24 24 0 0 0 0 48Z" fill="url(#a)"/><path d="M8.94 25.17c2.8-1.54 5.94-2.83 8.86-4.13a461.17 461.17 0 0 1 15.2-6.15c.99-.33 2.77-.65 2.95.82-.1 2.08-.5 4.15-.76 6.22-.69 4.56-1.48 9.1-2.25 13.64-.27 1.51-2.17 2.3-3.38 1.33-2.91-1.97-5.85-3.92-8.72-5.93-.94-.96-.07-2.34.77-3.02 2.4-2.36 4.94-4.37 7.22-6.86.61-1.48-1.2-.23-1.8.15-3.28 2.26-6.49 4.67-9.95 6.65-1.77.98-3.83.15-5.6-.4-1.59-.65-3.9-1.31-2.54-2.32Z" fill="#fff"/><defs><linearGradient id="a" x1="18.003" y1="2.002" x2="6.003" y2="30" gradientUnits="userSpaceOnUse"><stop stop-color="#37AEE2"/><stop offset="1" stop-color="#1E96C8"/></linearGradient></defs></svg>