<svg viewBox="0 0 48 48" fill="none" xmlns="http://www.w3.org/2000/svg"><ellipse cx="23.5" cy="42.5" rx="14.5" ry="5.5" fill="url(#a)"/><foreignObject x="-24" y="-24" width="96" height="96"><div xmlns="http://www.w3.org/1999/xhtml" style="backdrop-filter:blur(12px);clip-path:url(#b);height:100%;width:100%"/></foreignObject><g data-figma-bg-blur-radius="24"><rect x=".25" y=".25" width="47.5" height="47.5" rx="15.75" fill="#B2E7FE" fill-opacity=".08"/><rect x=".25" y=".25" width="47.5" height="47.5" rx="15.75" stroke="url(#c)" stroke-width=".5"/><rect x=".25" y=".25" width="47.5" height="47.5" rx="15.75" stroke="url(#d)" stroke-width=".5"/></g><g clip-path="url(#e)"><foreignObject x="-3" y="-3" width="55" height="55"><div xmlns="http://www.w3.org/1999/xhtml" style="backdrop-filter:blur(7px);clip-path:url(#f);height:100%;width:100%"/></foreignObject><g filter="url(#g)" data-figma-bg-blur-radius="14"><path d="M22.73 11v14.27h14.27a13.03 13.03 0 1 1-14.27-14.27Zm2.6 0a13.04 13.04 0 0 1 11.67 11.66h-11.66v-11.66Z" fill="url(#h)"/></g></g><defs><linearGradient id="a" x1="37.147" y1="37" x2="11.315" y2="51.989" gradientUnits="userSpaceOnUse"><stop stop-color="#03CF54"/><stop offset="1" stop-color="#04FF96"/></linearGradient><linearGradient id="c" x1="8.471" y1="43.412" x2="44.415" y2="5.241" gradientUnits="userSpaceOnUse"><stop stop-color="#3AC1FD" stop-opacity=".16"/><stop offset="1" stop-color="#fff" stop-opacity="0"/></linearGradient><linearGradient id="d" x1="8.471" y1="43.412" x2="44.415" y2="5.241" gradientUnits="userSpaceOnUse"><stop stop-color="#fff" stop-opacity="0"/><stop offset="1" stop-color="#fff" stop-opacity=".16"/></linearGradient><linearGradient id="h" x1="20.486" y1="-26.375" x2="-49.927" y2="25.882" gradientUnits="userSpaceOnUse"><stop stop-color="#fff" stop-opacity=".88"/><stop offset="1" stop-color="#fff" stop-opacity="0"/></linearGradient><clipPath id="b" transform="translate(24 24)"><rect x=".25" y=".25" width="47.5" height="47.5" rx="15.75"/></clipPath><clipPath id="f" transform="translate(3 3)"><path d="M22.73 11v14.27h14.27a13.03 13.03 0 1 1-14.27-14.27Zm2.6 0a13.04 13.04 0 0 1 11.67 11.66h-11.66v-11.66Z"/></clipPath><clipPath id="e"><path fill="#fff" transform="translate(11 11)" d="M0 0h26v26h-26z"/></clipPath><filter id="g" x="-3" y="-3" width="55" height="55" filterUnits="userSpaceOnUse" color-interpolation-filters="sRGB"><feFlood flood-opacity="0" result="BackgroundImageFix"/><feColorMatrix in="SourceAlpha" values="0 0 0 0 0 0 0 0 0 0 0 0 0 0 0 0 0 0 127 0" result="hardAlpha"/><feOffset dx="5" dy="5"/><feGaussianBlur stdDeviation="5"/><feColorMatrix values="0 0 0 0 0.075 0 0 0 0 0.256347 0 0 0 0 0.333333 0 0 0 0.4 0"/><feBlend in2="BackgroundImageFix" result="effect1_dropShadow_1_470"/><feBlend in="SourceGraphic" in2="effect1_dropShadow_1_470" result="shape"/><feColorMatrix in="SourceAlpha" values="0 0 0 0 0 0 0 0 0 0 0 0 0 0 0 0 0 0 127 0" result="hardAlpha"/><feOffset dy=".2"/><feComposite in2="hardAlpha" operator="arithmetic" k2="-1" k3="1"/><feColorMatrix values="0 0 0 0 1 0 0 0 0 1 0 0 0 0 1 0 0 0 0.25 0"/><feBlend in2="shape" result="effect2_innerShadow_1_470"/><feColorMatrix in="SourceAlpha" values="0 0 0 0 0 0 0 0 0 0 0 0 0 0 0 0 0 0 127 0" result="hardAlpha"/><feOffset dy="-.2"/><feComposite in2="hardAlpha" operator="arithmetic" k2="-1" k3="1"/><feColorMatrix values="0 0 0 0 0 0 0 0 0 0 0 0 0 0 0 0 0 0 0.25 0"/><feBlend in2="effect2_innerShadow_1_470" result="effect3_innerShadow_1_470"/></filter></defs></svg>