<svg viewBox="0 0 48 48" fill="none" xmlns="http://www.w3.org/2000/svg"><path d="M0 24a24 24 0 1 1 48 0 24 24 0 0 1-48 0Z" fill="#55ACEE"/><path d="m23.28 19.5.05.84-.84-.1a13.65 13.65 0 0 1-7.99-3.94l-1.1-1.1-.3.82a4.9 4.9 0 0 0 1.05 5.01c.67.71.52.82-.64.4-.4-.14-.75-.24-.79-.2-.12.12.29 1.67.6 2.28a5.42 5.42 0 0 0 2.3 2.17l.83.39-.97.01c-.95 0-.98.02-.88.38.34 1.1 1.66 2.27 3.14 2.78l1.04.35-.9.54a9.45 9.45 0 0 1-4.5 1.26c-.76.01-1.38.08-1.38.13 0 .17 2.05 1.12 3.24 1.5 3.58 1.1 7.82.62 11.01-1.26 2.27-1.34 4.54-4 5.6-6.58a17.48 17.48 0 0 0 1.13-5.08c0-.78.05-.88 1-1.81.55-.55 1.07-1.14 1.17-1.3.17-.33.15-.33-.7-.04-1.43.5-1.63.44-.93-.32a4.93 4.93 0 0 0 1.14-1.82c0-.05-.25.04-.53.19-.3.17-.98.42-1.48.58l-.9.28-.83-.56c-.45-.3-1.1-.64-1.43-.74a5.73 5.73 0 0 0-2.94.07 4.85 4.85 0 0 0-3.27 4.88Z" fill="#fff"/></svg>